# xmcd
#
# Track frame offsets:
#	182
#	18640
#	50927
#	70725
#	115562
#
# Disc length: 1841 seconds
# Revision: 0
# Processed by: cddbd v1.5.2PL0 Copyright (c) Steve Scherf et al.
# Submitted via: dBpowerAMP V12.0
#
DISCID=40072f05
DTITLE=Juliet Roberts - I Want You
DYEAR=1994
DGENRE=House
TTITLE0=I Want You [Single Edit]
TTITLE1=I Want You [Extended Mix]
TTITLE2=Force Of Nature [Album Version]
TTITLE3=I Want You [Monster Club Mix]
TTITLE4=I Want You [Album Version]
EXTD=
EXTT0=
EXTT1=
EXTT2=
EXTT3=
EXTT4=
PLAYORDER=
